<svg version="1.1" id="Layer_1" xmlns="http://www.w3.org/2000/svg" xmlns:xlink="http://www.w3.org/1999/xlink" x="0px" y="0px"
	 width="100%" viewBox="0 0 1344 768" enable-background="new 0 0 1344 768" xml:space="preserve">
<path fill="#3CB051" opacity="1.000000" stroke="none" 
	d="
M881.000000,769.000000 
	C587.367981,769.000000 294.235931,769.000000 1.051950,769.000000 
	C1.051950,513.064880 1.051950,257.129761 1.051950,1.097315 
	C448.882172,1.097315 896.764404,1.097315 1344.823242,1.097315 
	C1344.823242,256.999908 1344.823242,512.999939 1344.823242,769.000000 
	C1190.462769,769.000000 1035.981445,769.000000 881.000000,769.000000 
M781.113403,272.064758 
	C781.291199,272.217682 781.468933,272.370636 781.459045,273.219299 
	C774.046265,290.873413 766.482239,308.466614 759.325317,326.223877 
	C757.499573,330.753845 755.034668,333.539276 750.349731,335.187958 
	C744.571106,337.221405 738.940369,339.872620 733.596069,342.879578 
	C729.391479,345.245209 728.299866,349.922943 730.292664,353.180176 
	C732.288696,356.442749 735.764465,356.863434 740.487671,354.409485 
	C742.903442,353.154388 745.315796,351.892883 747.729675,350.634247 
	C748.057800,350.945984 748.385864,351.257721 748.713989,351.569427 
	C745.283142,360.139282 741.588623,368.614410 738.469788,377.296356 
	C728.060608,406.272858 717.694824,435.267639 707.711670,464.392303 
	C705.691650,470.285736 705.139709,476.746246 704.436829,483.004425 
	C703.984558,487.031616 705.850098,490.252167 710.318604,490.892944 
	C714.229248,491.453766 717.021973,488.828186 718.071167,484.165497 
	C719.495544,477.835663 720.390564,471.297821 722.605286,465.249237 
	C737.028687,425.858154 751.704285,386.558990 766.500244,347.306213 
	C767.232849,345.362610 769.605042,343.335815 771.638855,342.693451 
	C789.731323,336.979095 807.923279,331.580139 826.074585,326.051056 
	C828.133179,325.423981 830.280151,324.837555 832.111206,323.763519 
	C836.174988,321.379822 836.315308,316.584381 832.006409,314.778198 
	C828.847412,313.454010 824.739868,312.904877 821.439514,313.669464 
	C808.802734,316.597015 796.317871,320.182159 783.785034,323.554382 
	C781.446899,324.183502 779.149109,324.962311 776.119202,325.890686 
	C776.548462,324.117645 776.659851,323.178894 776.998169,322.330627 
	C784.338074,303.927765 791.655823,285.515625 799.155884,267.178070 
	C799.743958,265.740204 801.450684,264.266357 802.954773,263.769623 
	C833.177917,253.788666 863.760925,245.101425 895.067322,239.199692 
	C901.647461,237.959244 908.378052,237.517044 915.482666,236.653107 
	C914.674805,239.750549 914.127625,241.848557 913.423645,244.547836 
	C915.578735,244.421844 916.883179,244.489166 918.128357,244.248978 
	C924.980774,242.927231 930.408020,237.331299 930.032410,232.070984 
	C929.639526,226.567657 925.265503,222.903931 917.319763,222.628510 
	C911.028320,222.410431 904.520996,222.404388 898.422119,223.735855 
	C876.962280,228.420822 855.594116,233.550400 834.281311,238.872482 
	C825.137573,241.155792 816.215393,244.326187 808.588562,246.665375 
	C805.680237,243.927460 803.888916,240.995316 801.408447,240.192352 
	C797.501221,238.927567 795.784607,242.764908 793.911743,245.478607 
	C793.346191,246.298035 792.737305,247.151138 792.440979,248.081985 
	C791.075928,252.370819 787.738464,253.917191 783.797546,255.437881 
	C768.579712,261.310059 753.478943,267.491974 738.420166,273.764160 
	C735.725403,274.886566 733.097046,276.646942 731.044739,278.714844 
	C728.337463,281.442749 727.742676,284.953400 730.423218,288.193817 
	C733.192444,291.541473 736.320251,290.600311 739.855591,289.038147 
	C753.368591,283.067047 767.006714,277.379242 781.113403,272.064758 
M969.509644,355.691254 
	C967.613647,354.446259 965.717712,353.201233 963.736267,351.199921 
	C963.911072,347.093903 961.771912,344.563843 958.055969,343.397156 
	C954.070679,342.145874 951.335327,344.141205 949.229980,347.331696 
	C946.845154,350.945526 944.494812,354.582489 942.076233,358.173523 
	C932.947876,371.727264 923.695007,385.189453 911.194397,395.979340 
	C909.140869,397.751953 906.819153,399.213867 904.621399,400.819397 
	C904.048889,400.550934 903.476379,400.282471 902.903809,400.014008 
	C903.421448,395.875702 903.309998,391.529785 904.592651,387.643982 
	C906.984070,380.398987 910.184326,373.420898 913.051392,366.333099 
	C914.460144,362.850403 915.769226,359.245453 912.765625,356.033173 
	C909.739441,352.796692 906.063538,352.875488 902.288208,355.036713 
	C899.110840,349.364380 894.079041,348.257477 888.511536,349.717896 
	C884.537964,350.760254 880.520874,352.242737 877.013000,354.345856 
	C864.186890,362.035400 853.876465,372.477600 846.830933,385.614258 
	C843.847595,391.176910 841.816101,397.729706 841.247559,404.004211 
	C840.187256,415.705414 851.000122,423.008575 861.688049,418.086365 
	C866.738464,415.760406 871.321167,412.211212 875.704102,408.702118 
	C880.024292,405.243286 883.824280,401.134827 888.297668,396.888763 
	C888.602600,398.242279 888.847900,398.844818 888.858948,399.451630 
	C889.128967,414.332947 901.963318,419.463837 913.938538,411.594543 
	C918.873901,408.351349 922.989624,403.827850 927.337341,399.736877 
	C929.603333,397.604736 931.563171,395.147308 933.826111,392.655334 
	C934.248047,393.498962 934.411621,393.669006 934.379211,393.783813 
	C933.341003,397.466766 932.266357,401.139465 931.233154,404.823822 
	C929.108887,412.399292 930.290955,416.245148 935.375305,418.400299 
	C939.740540,420.250610 942.826538,418.528931 947.249023,411.903076 
	C954.921997,400.407135 962.558716,388.885712 970.374023,377.486969 
	C972.335266,374.626587 974.916931,372.191620 977.213440,369.561127 
	C977.622742,369.813721 978.032043,370.066315 978.441345,370.318909 
	C977.826782,373.380188 977.274231,376.455475 976.584290,379.499664 
	C975.296326,385.182495 973.791687,390.819427 972.631165,396.527069 
	C971.369690,402.730957 973.285645,407.462311 977.518066,409.464111 
	C981.847351,411.511749 985.899902,409.910522 990.143188,404.215759 
	C996.104614,396.215149 1001.931580,388.114471 1007.876404,380.101318 
	C1008.823975,378.824005 1010.086426,377.780212 1011.203247,376.628418 
	C1011.608521,376.812775 1012.013733,376.997131 1012.418945,377.181488 
	C1009.808105,388.312103 1006.707581,399.837952 1016.343750,408.833923 
	C1026.722534,418.523102 1037.424438,412.338654 1048.008545,407.620453 
	C1054.902832,422.635193 1067.528320,426.698212 1082.121460,424.429260 
	C1109.726562,420.137207 1133.273071,406.966614 1153.946289,388.570007 
	C1156.922974,385.921204 1159.003540,381.956665 1160.663208,378.229004 
	C1162.144409,374.901733 1160.056396,372.927673 1156.600952,374.141632 
	C1154.303711,374.948669 1152.210693,376.478210 1150.193726,377.919006 
	C1133.415649,389.905060 1115.451904,399.690308 1095.809204,405.998413 
	C1089.086426,408.157379 1081.865234,409.171936 1074.798340,409.674072 
	C1071.457886,409.911438 1067.566040,408.315887 1064.599121,406.467255 
	C1060.329590,403.806885 1060.830444,400.363831 1065.206909,397.844025 
	C1076.999512,391.054352 1087.748291,382.829285 1096.410522,372.373932 
	C1100.775635,367.105347 1104.685547,360.916107 1106.845581,354.486206 
	C1110.474609,343.683258 1100.808105,334.037415 1089.582153,336.444946 
	C1086.693237,337.064484 1083.746094,338.101227 1081.218628,339.606110 
	C1064.259766,349.703522 1052.587769,364.308167 1048.270508,383.473755 
	C1046.448975,391.560699 1042.789185,395.631866 1035.614868,397.823669 
	C1035.137939,397.969360 1034.687988,398.293762 1034.209839,398.329987 
	C1031.663696,398.522858 1027.942993,399.727295 1026.848145,398.538147 
	C1025.352783,396.914062 1025.218018,393.345123 1025.639160,390.798431 
	C1026.422852,386.060425 1027.976318,381.443237 1029.310303,376.804779 
	C1030.413940,372.967072 1031.780640,369.202881 1032.818481,365.348938 
	C1034.220337,360.142944 1034.798218,354.760376 1029.501709,351.408600 
	C1024.288330,348.109436 1019.036560,349.718842 1014.810852,353.575500 
	C1008.920166,358.951874 1003.418274,364.754944 997.767944,370.393463 
	C996.547791,371.611115 995.404358,372.905670 993.310059,375.142853 
	C993.983398,368.456177 994.630798,363.258331 994.992249,358.040710 
	C995.271423,354.010345 994.283508,350.316589 990.350830,348.276062 
	C986.108337,346.074860 981.912720,346.524109 978.123108,349.352783 
	C975.331787,351.436340 972.754517,353.806763 969.509644,355.691254 
M279.933502,259.614471 
	C270.894257,263.855499 261.687744,267.777924 252.855698,272.413757 
	C240.231567,279.039978 228.876938,287.568207 219.404816,298.249603 
	C216.080704,301.998077 213.520767,306.691895 211.639267,311.367432 
	C210.126068,315.127777 211.590012,319.504333 215.306671,321.335541 
	C218.282333,322.801727 222.221146,323.187622 225.558548,322.744019 
	C227.863052,322.437744 231.061066,319.604889 227.448837,317.064148 
	C223.458359,314.257385 224.620651,312.031219 226.943512,309.398651 
	C229.030563,307.033264 231.124954,304.621857 233.520096,302.588898 
	C258.956970,280.998138 288.700104,268.802002 321.229218,262.961487 
	C340.535828,259.495056 359.878540,257.898315 379.142120,263.667694 
	C404.436462,271.243317 417.081512,291.330658 412.329254,317.277130 
	C409.165802,334.549042 400.872162,349.561188 390.214844,363.219238 
	C351.458862,412.887756 301.761536,448.081238 243.851303,471.801117 
	C231.838089,476.721680 218.594376,478.921112 205.725983,481.364624 
	C197.996765,482.832306 195.999329,480.286774 195.561386,472.581268 
	C195.494095,471.397278 194.993866,469.562317 194.222855,469.269775 
	C193.317123,468.926147 191.668030,469.653687 190.735901,470.405731 
	C182.146805,477.335083 183.587219,489.619019 193.915085,493.409760 
	C198.886261,495.234375 204.856812,496.102081 210.027176,495.262451 
	C221.967194,493.323456 234.265610,491.522766 245.413712,487.120911 
	C305.531769,463.383026 357.063507,427.340210 398.226746,377.160400 
	C411.547485,360.921844 422.428375,343.244720 426.466339,322.175812 
	C431.092712,298.036621 425.772491,272.107086 398.518005,256.199158 
	C388.140869,250.142212 376.684204,247.036331 364.817047,245.992188 
	C335.692017,243.429642 307.827362,249.349487 279.933502,259.614471 
M470.696228,373.356537 
	C471.809021,369.554443 473.462524,365.800873 473.809906,361.930115 
	C473.987640,359.949768 471.880432,355.999786 470.713898,355.964294 
	C465.229187,355.797363 461.510498,352.427734 457.139282,350.133026 
	C455.530060,349.288239 453.087585,349.198181 451.292267,349.706818 
	C447.013947,350.918823 442.380829,351.935028 438.797119,354.366089 
	C419.758057,367.281158 406.491364,384.892578 398.349762,406.346954 
	C397.366028,408.939301 397.088501,411.865021 396.862976,414.666779 
	C396.311584,421.518250 397.652618,427.849304 404.073425,431.586212 
	C410.340820,435.233917 416.692902,433.535950 421.841644,429.436676 
	C428.705017,423.972260 434.921722,417.686523 441.316956,411.648499 
	C443.287720,409.787750 444.934021,407.583344 447.521576,404.632263 
	C447.804321,407.231842 447.948303,408.481903 448.075195,409.733673 
	C449.401428,422.812744 460.932251,428.161316 471.586243,420.370483 
	C475.578857,417.450836 479.177765,413.857758 482.456696,410.132111 
	C486.346771,405.712158 489.698090,400.818024 494.239990,394.877533 
	C494.239990,402.178650 494.097534,408.080048 494.282379,413.971191 
	C494.447968,419.249329 496.094299,423.886230 501.580139,425.963196 
	C506.353851,427.770477 511.861847,426.044464 515.795227,421.218842 
	C518.945435,417.354065 521.835693,413.252655 524.572693,409.079987 
	C537.082092,390.008514 549.501282,370.877808 561.934448,351.756439 
	C562.656555,350.645813 563.710144,349.444214 563.744934,348.259583 
	C563.809082,346.073090 563.971741,343.098480 562.712708,341.886688 
	C561.454468,340.675690 558.392944,340.702454 556.333130,341.152710 
	C554.546570,341.543182 552.778381,343.036652 551.485107,344.476532 
	C547.373718,349.054138 543.016479,353.518005 539.608093,358.598694 
	C531.168457,371.179382 523.220764,384.089569 515.031555,396.839172 
	C513.390991,399.393280 511.555511,401.822205 509.809937,404.308838 
	C508.789612,402.255798 508.713745,400.672394 508.801575,399.098175 
	C509.534393,385.962921 510.325104,372.830841 511.035248,359.694427 
	C511.263550,355.471069 508.795441,353.010956 504.962219,352.426941 
	C501.216187,351.856232 499.267151,354.502411 498.133667,357.749329 
	C491.821228,375.832184 481.325165,391.258423 468.046082,404.879669 
	C466.578369,406.385223 464.555939,407.349976 461.715607,409.305939 
	C462.685822,395.992981 466.381470,384.993927 470.696228,373.356537 
M932.332275,467.902832 
	C952.112061,469.295776 971.935608,470.243561 991.661743,472.182312 
	C1024.152466,475.375610 1056.575806,479.249023 1089.037842,482.740051 
	C1095.229248,483.405884 1100.864868,487.303558 1107.541260,485.412476 
	C1110.832397,484.480347 1113.667114,483.669037 1114.117065,479.769775 
	C1114.598511,475.597168 1112.943237,472.477814 1108.965332,471.123108 
	C1106.153442,470.165466 1103.146362,469.694427 1100.188965,469.263000 
	C1024.890869,458.278229 949.129822,452.822052 873.108826,451.057556 
	C832.130554,450.106445 791.126831,450.231171 750.133911,450.009979 
	C748.377869,450.000519 745.597107,450.956146 745.048401,452.222504 
	C743.512939,455.766205 742.898682,459.709045 741.754028,464.140198 
	C805.539551,463.366913 868.496338,464.091156 932.332275,467.902832 
M657.209351,427.845551 
	C656.714844,425.064575 655.654175,422.248840 655.822266,419.508514 
	C656.614319,406.593231 657.396179,393.659760 658.834351,380.805817 
	C660.910278,362.252838 667.215271,345.116425 675.744934,328.434387 
	C683.065247,314.117523 688.440674,298.788879 694.354309,283.780853 
	C696.103455,279.341736 697.075745,274.521454 697.814697,269.783905 
	C698.371460,266.214264 696.773499,263.168732 693.020020,261.991180 
	C689.304749,260.825562 686.035767,261.592499 683.893799,265.101440 
	C681.727539,268.649963 679.554138,272.208893 677.651917,275.901337 
	C666.624146,297.307678 659.410339,320.176270 652.070374,342.994476 
	C650.860535,346.755585 649.552368,350.485107 648.238220,354.381531 
	C639.061279,348.038239 632.153748,347.030823 622.231628,352.448456 
	C600.676758,364.217773 588.895569,383.213654 585.665100,407.125519 
	C583.942871,419.873657 596.486450,427.844940 608.170471,422.348969 
	C610.552979,421.228302 612.990417,419.842499 614.822449,418.001587 
	C621.497253,411.294403 628.011719,404.420929 634.406372,397.444946 
	C637.020813,394.592865 639.175781,391.319550 641.539795,388.237915 
	C642.115112,392.749847 641.768066,396.855927 641.482544,400.966278 
	C640.775879,411.139679 640.294922,421.346161 644.262756,431.024384 
	C645.341980,433.657013 647.177185,436.870972 649.500610,437.863922 
	C652.075439,438.964264 656.073853,438.733032 658.604004,437.431824 
	C661.762512,435.807465 659.398315,432.804443 658.262817,430.462769 
	C657.972900,429.865051 657.760620,429.229645 657.209351,427.845551 
M645.446838,466.678589 
	C658.929260,466.137726 672.415833,465.674164 685.888672,464.954010 
	C687.495728,464.868103 689.888062,463.748383 690.427246,462.476532 
	C691.824951,459.179871 692.391357,455.530792 693.451477,451.390320 
	C690.302490,451.390320 687.704834,451.303528 685.114319,451.402954 
	C610.345093,454.271759 535.688232,458.904053 461.446472,468.406219 
	C424.305176,473.159882 387.374176,479.559937 350.358643,485.283691 
	C348.262848,485.607788 345.621124,485.977509 344.383575,487.357422 
	C342.887238,489.026001 341.555115,492.073303 342.066101,494.022034 
	C342.833221,496.947693 345.663635,498.038452 348.959778,496.664520 
	C350.926666,495.844604 353.057922,495.260651 355.170197,494.971588 
	C389.158875,490.320557 423.045685,484.527008 457.176056,481.395660 
	C519.535400,475.674347 582.040100,471.537048 645.446838,466.678589 
M262.601318,412.902771 
	C261.923004,415.133545 260.977509,417.322327 260.618866,419.603363 
	C259.718536,425.329803 258.595306,431.098450 258.601471,436.849091 
	C258.603699,438.921173 261.314423,442.309235 263.264191,442.694946 
	C265.273743,443.092377 268.339478,441.013184 270.057220,439.185181 
	C271.646454,437.493866 272.216461,434.750122 272.972168,432.385742 
	C277.786377,417.323975 282.010223,402.051178 287.399719,387.200348 
	C298.987427,355.270264 311.166321,323.554810 323.086273,291.745117 
	C323.550629,290.505981 324.444183,288.991882 324.089844,287.968750 
	C323.247437,285.536102 322.265808,282.090454 320.423737,281.357361 
	C318.500702,280.591949 315.156158,282.017914 313.090363,283.440399 
	C311.517761,284.523315 310.835114,287.040436 309.995209,289.020691 
	C306.744568,296.684723 303.378937,304.309692 300.435394,312.092651 
	C287.832306,345.415802 275.364166,378.790039 262.601318,412.902771 
M814.358948,354.472656 
	C812.159119,353.042511 809.909851,350.449219 807.774597,350.539856 
	C805.974854,350.616272 803.712830,353.533020 802.709717,355.684143 
	C800.823059,359.729584 799.661682,364.118073 798.261230,368.384460 
	C793.386169,383.236511 788.396362,398.053284 783.752014,412.977448 
	C781.995544,418.621765 784.283020,423.076996 788.736633,424.423706 
	C793.188354,425.769836 796.106140,423.659943 798.501648,417.712097 
	C804.238525,403.467712 810.766907,389.560913 820.564026,377.639404 
	C830.336670,365.747589 841.168091,355.216614 858.537354,356.354706 
	C860.225342,356.465302 863.183533,354.322266 863.547546,352.758636 
	C863.922729,351.146820 862.209900,347.666351 860.777039,347.264923 
	C855.631714,345.823425 850.116943,344.247437 844.928772,344.730499 
	C835.612305,345.597961 827.699036,350.502899 820.536865,356.447662 
	C818.932983,357.778900 817.324463,359.104553 815.197571,360.863129 
	C814.959045,358.411926 814.803467,356.813110 814.358948,354.472656 
M558.723083,388.087219 
	C557.004028,395.523285 554.953430,402.903595 553.689270,410.416199 
	C552.919922,414.988251 554.001343,419.722626 558.796509,421.873047 
	C560.780334,422.762695 564.029663,422.894958 565.701843,421.817291 
	C567.280640,420.799835 567.917175,417.806244 568.300354,415.567566 
	C568.879517,412.183563 568.269226,408.517242 569.237549,405.293152 
	C572.345398,394.944397 575.951721,384.745483 579.353271,374.484680 
	C580.711792,370.386505 582.296753,366.340210 583.309326,362.156708 
	C584.422424,357.557495 582.292175,353.566193 578.492920,352.446075 
	C573.922485,351.098541 572.139038,354.333893 570.779968,357.664001 
	C566.757690,367.519531 562.891052,377.438599 558.723083,388.087219 
M1308.025024,710.539795 
	C1298.435303,706.464050 1292.726562,698.847290 1288.954224,689.050720 
	C1284.810059,701.102600 1276.826416,708.838196 1264.964966,713.083740 
	C1277.307495,717.179138 1284.747314,725.313354 1289.058716,737.006287 
	C1293.200439,724.858948 1301.182617,717.262817 1314.101685,713.147034 
	C1311.317627,711.942139 1310.009155,711.375854 1308.025024,710.539795 
M581.290039,326.183899 
	C582.259583,327.304810 583.062866,328.653198 584.228699,329.505585 
	C588.369080,332.532654 594.295654,331.165619 597.307617,326.641632 
	C599.829712,322.853424 598.966553,317.582092 594.562012,315.577545 
	C591.926086,314.377869 587.969788,314.253052 585.312378,315.351532 
	C581.251160,317.030334 580.137817,321.123505 581.290039,326.183899 
z"/>
<path fill="#F8FBF8" opacity="1.000000" stroke="none" 
	d="
M970.081848,356.049377 
	C972.754517,353.806763 975.331787,351.436340 978.123108,349.352783 
	C981.912720,346.524109 986.108337,346.074860 990.350830,348.276062 
	C994.283508,350.316589 995.271423,354.010345 994.992249,358.040710 
	C994.630798,363.258331 993.983398,368.456177 993.310059,375.142853 
	C995.404358,372.905670 996.547791,371.611115 997.767944,370.393463 
	C1003.418274,364.754944 1008.920166,358.951874 1014.810852,353.575500 
	C1019.036560,349.718842 1024.288330,348.109436 1029.501709,351.408600 
	C1034.798218,354.760376 1034.220337,360.142944 1032.818481,365.348938 
	C1031.780640,369.202881 1030.413940,372.967072 1029.310303,376.804779 
	C1027.976318,381.443237 1026.422852,386.060425 1025.639160,390.798431 
	C1025.218018,393.345123 1025.352783,396.914062 1026.848145,398.538147 
	C1027.942993,399.727295 1031.663696,398.522858 1034.209839,398.329987 
	C1034.687988,398.293762 1035.137939,397.969360 1035.614868,397.823669 
	C1042.789185,395.631866 1046.448975,391.560699 1048.270508,383.473755 
	C1052.587769,364.308167 1064.259766,349.703522 1081.218628,339.606110 
	C1083.746094,338.101227 1086.693237,337.064484 1089.582153,336.444946 
	C1100.808105,334.037415 1110.474609,343.683258 1106.845581,354.486206 
	C1104.685547,360.916107 1100.775635,367.105347 1096.410522,372.373932 
	C1087.748291,382.829285 1076.999512,391.054352 1065.206909,397.844025 
	C1060.830444,400.363831 1060.329590,403.806885 1064.599121,406.467255 
	C1067.566040,408.315887 1071.457886,409.911438 1074.798340,409.674072 
	C1081.865234,409.171936 1089.086426,408.157379 1095.809204,405.998413 
	C1115.451904,399.690308 1133.415649,389.905060 1150.193726,377.919006 
	C1152.210693,376.478210 1154.303711,374.948669 1156.600952,374.141632 
	C1160.056396,372.927673 1162.144409,374.901733 1160.663208,378.229004 
	C1159.003540,381.956665 1156.922974,385.921204 1153.946289,388.570007 
	C1133.273071,406.966614 1109.726562,420.137207 1082.121460,424.429260 
	C1067.528320,426.698212 1054.902832,422.635193 1048.008545,407.620453 
	C1037.424438,412.338654 1026.722534,418.523102 1016.343750,408.833923 
	C1006.707581,399.837952 1009.808105,388.312103 1012.418945,377.181488 
	C1012.013733,376.997131 1011.608521,376.812775 1011.203247,376.628418 
	C1010.086426,377.780212 1008.823975,378.824005 1007.876404,380.101318 
	C1001.931580,388.114471 996.104614,396.215149 990.143188,404.215759 
	C985.899902,409.910522 981.847351,411.511749 977.518066,409.464111 
	C973.285645,407.462311 971.369690,402.730957 972.631165,396.527069 
	C973.791687,390.819427 975.296326,385.182495 976.584290,379.499664 
	C977.274231,376.455475 977.826782,373.380188 978.441345,370.318909 
	C978.032043,370.066315 977.622742,369.813721 977.213440,369.561127 
	C974.916931,372.191620 972.335266,374.626587 970.374023,377.486969 
	C962.558716,388.885712 954.921997,400.407135 947.249023,411.903076 
	C942.826538,418.528931 939.740540,420.250610 935.375305,418.400299 
	C930.290955,416.245148 929.108887,412.399292 931.233154,404.823822 
	C932.266357,401.139465 933.341003,397.466766 934.379211,393.783813 
	C934.411621,393.669006 934.248047,393.498962 933.826111,392.655334 
	C931.563171,395.147308 929.603333,397.604736 927.337341,399.736877 
	C922.989624,403.827850 918.873901,408.351349 913.938538,411.594543 
	C901.963318,419.463837 889.128967,414.332947 888.858948,399.451630 
	C888.847900,398.844818 888.602600,398.242279 888.297668,396.888763 
	C883.824280,401.134827 880.024292,405.243286 875.704102,408.702118 
	C871.321167,412.211212 866.738464,415.760406 861.688049,418.086365 
	C851.000122,423.008575 840.187256,415.705414 841.247559,404.004211 
	C841.816101,397.729706 843.847595,391.176910 846.830933,385.614258 
	C853.876465,372.477600 864.186890,362.035400 877.013000,354.345856 
	C880.520874,352.242737 884.537964,350.760254 888.511536,349.717896 
	C894.079041,348.257477 899.110840,349.364380 902.288208,355.036713 
	C906.063538,352.875488 909.739441,352.796692 912.765625,356.033173 
	C915.769226,359.245453 914.460144,362.850403 913.051392,366.333099 
	C910.184326,373.420898 906.984070,380.398987 904.592651,387.643982 
	C903.309998,391.529785 903.421448,395.875702 902.903809,400.014008 
	C903.476379,400.282471 904.048889,400.550934 904.621399,400.819397 
	C906.819153,399.213867 909.140869,397.751953 911.194397,395.979340 
	C923.695007,385.189453 932.947876,371.727264 942.076233,358.173523 
	C944.494812,354.582489 946.845154,350.945526 949.229980,347.331696 
	C951.335327,344.141205 954.070679,342.145874 958.055969,343.397156 
	C961.771912,344.563843 963.911072,347.093903 963.577881,351.868927 
	C961.280701,358.454376 959.141907,364.370789 957.003174,370.287231 
	C957.435669,370.514404 957.868164,370.741608 958.300720,370.968811 
	C962.227722,365.995667 966.154785,361.022491 970.081848,356.049377 
M869.359558,395.867371 
	C879.391602,385.459076 889.859436,375.398865 897.256958,362.237885 
	C882.213135,360.506287 854.783264,389.389984 856.247131,405.800079 
	C860.803345,402.374420 864.816711,399.356903 869.359558,395.867371 
M1088.826172,351.205383 
	C1077.627075,358.559143 1068.971436,367.968353 1063.691772,381.831085 
	C1076.833496,373.310455 1088.071167,364.851593 1094.878418,349.941132 
	C1092.151245,350.438690 1090.826294,350.680420 1088.826172,351.205383 
M993.161926,374.466125 
	C993.342773,374.537994 993.523560,374.609863 993.704468,374.681732 
	C993.652161,374.489502 993.599915,374.297272 993.161926,374.466125 
z"/>
<path fill="#F8FBF8" opacity="1.000000" stroke="none" 
	d="
M280.286743,259.460266 
	C307.827362,249.349487 335.692017,243.429642 364.817047,245.992188 
	C376.684204,247.036331 388.140869,250.142212 398.518005,256.199158 
	C425.772491,272.107086 431.092712,298.036621 426.466339,322.175812 
	C422.428375,343.244720 411.547485,360.921844 398.226746,377.160400 
	C357.063507,427.340210 305.531769,463.383026 245.413712,487.120911 
	C234.265610,491.522766 221.967194,493.323456 210.027176,495.262451 
	C204.856812,496.102081 198.886261,495.234375 193.915085,493.409760 
	C183.587219,489.619019 182.146805,477.335083 190.735901,470.405731 
	C191.668030,469.653687 193.317123,468.926147 194.222855,469.269775 
	C194.993866,469.562317 195.494095,471.397278 195.561386,472.581268 
	C195.999329,480.286774 197.996765,482.832306 205.725983,481.364624 
	C218.594376,478.921112 231.838089,476.721680 243.851303,471.801117 
	C301.761536,448.081238 351.458862,412.887756 390.214844,363.219238 
	C400.872162,349.561188 409.165802,334.549042 412.329254,317.277130 
	C417.081512,291.330658 404.436462,271.243317 379.142120,263.667694 
	C359.878540,257.898315 340.535828,259.495056 321.229218,262.961487 
	C288.700104,268.802002 258.956970,280.998138 233.520096,302.588898 
	C231.124954,304.621857 229.030563,307.033264 226.943512,309.398651 
	C224.620651,312.031219 223.458359,314.257385 227.448837,317.064148 
	C231.061066,319.604889 227.863052,322.437744 225.558548,322.744019 
	C222.221146,323.187622 218.282333,322.801727 215.306671,321.335541 
	C211.590012,319.504333 210.126068,315.127777 211.639267,311.367432 
	C213.520767,306.691895 216.080704,301.998077 219.404816,298.249603 
	C228.876938,287.568207 240.231567,279.039978 252.855698,272.413757 
	C261.687744,267.777924 270.894257,263.855499 280.286743,259.460266 
z"/>
<path fill="#F8FBF8" opacity="1.000000" stroke="none" 
	d="
M780.598145,271.585693 
	C767.006714,277.379242 753.368591,283.067047 739.855591,289.038147 
	C736.320251,290.600311 733.192444,291.541473 730.423218,288.193817 
	C727.742676,284.953400 728.337463,281.442749 731.044739,278.714844 
	C733.097046,276.646942 735.725403,274.886566 738.420166,273.764160 
	C753.478943,267.491974 768.579712,261.310059 783.797546,255.437881 
	C787.738464,253.917191 791.075928,252.370819 792.440979,248.081985 
	C792.737305,247.151138 793.346191,246.298035 793.911743,245.478607 
	C795.784607,242.764908 797.501221,238.927567 801.408447,240.192352 
	C803.888916,240.995316 805.680237,243.927460 808.588562,246.665375 
	C816.215393,244.326187 825.137573,241.155792 834.281311,238.872482 
	C855.594116,233.550400 876.962280,228.420822 898.422119,223.735855 
	C904.520996,222.404388 911.028320,222.410431 917.319763,222.628510 
	C925.265503,222.903931 929.639526,226.567657 930.032410,232.070984 
	C930.408020,237.331299 924.980774,242.927231 918.128357,244.248978 
	C916.883179,244.489166 915.578735,244.421844 913.423645,244.547836 
	C914.127625,241.848557 914.674805,239.750549 915.482666,236.653107 
	C908.378052,237.517044 901.647461,237.959244 895.067322,239.199692 
	C863.760925,245.101425 833.177917,253.788666 802.954773,263.769623 
	C801.450684,264.266357 799.743958,265.740204 799.155884,267.178070 
	C791.655823,285.515625 784.338074,303.927765 776.998169,322.330627 
	C776.659851,323.178894 776.548462,324.117645 776.119202,325.890686 
	C779.149109,324.962311 781.446899,324.183502 783.785034,323.554382 
	C796.317871,320.182159 808.802734,316.597015 821.439514,313.669464 
	C824.739868,312.904877 828.847412,313.454010 832.006409,314.778198 
	C836.315308,316.584381 836.174988,321.379822 832.111206,323.763519 
	C830.280151,324.837555 828.133179,325.423981 826.074585,326.051056 
	C807.923279,331.580139 789.731323,336.979095 771.638855,342.693451 
	C769.605042,343.335815 767.232849,345.362610 766.500244,347.306213 
	C751.704285,386.558990 737.028687,425.858154 722.605286,465.249237 
	C720.390564,471.297821 719.495544,477.835663 718.071167,484.165497 
	C717.021973,488.828186 714.229248,491.453766 710.318604,490.892944 
	C705.850098,490.252167 703.984558,487.031616 704.436829,483.004425 
	C705.139709,476.746246 705.691650,470.285736 707.711670,464.392303 
	C717.694824,435.267639 728.060608,406.272858 738.469788,377.296356 
	C741.588623,368.614410 745.283142,360.139282 748.713989,351.569427 
	C748.385864,351.257721 748.057800,350.945984 747.729675,350.634247 
	C745.315796,351.892883 742.903442,353.154388 740.487671,354.409485 
	C735.764465,356.863434 732.288696,356.442749 730.292664,353.180176 
	C728.299866,349.922943 729.391479,345.245209 733.596069,342.879578 
	C738.940369,339.872620 744.571106,337.221405 750.349731,335.187958 
	C755.034668,333.539276 757.499573,330.753845 759.325317,326.223877 
	C766.482239,308.466614 774.046265,290.873413 781.657227,272.650024 
	C781.436340,271.915710 781.017212,271.750702 780.598145,271.585693 
z"/>
<path fill="#F8FBF8" opacity="1.000000" stroke="none" 
	d="
M470.528992,373.709778 
	C466.381470,384.993927 462.685822,395.992981 461.715607,409.305939 
	C464.555939,407.349976 466.578369,406.385223 468.046082,404.879669 
	C481.325165,391.258423 491.821228,375.832184 498.133667,357.749329 
	C499.267151,354.502411 501.216187,351.856232 504.962219,352.426941 
	C508.795441,353.010956 511.263550,355.471069 511.035248,359.694427 
	C510.325104,372.830841 509.534393,385.962921 508.801575,399.098175 
	C508.713745,400.672394 508.789612,402.255798 509.809937,404.308838 
	C511.555511,401.822205 513.390991,399.393280 515.031555,396.839172 
	C523.220764,384.089569 531.168457,371.179382 539.608093,358.598694 
	C543.016479,353.518005 547.373718,349.054138 551.485107,344.476532 
	C552.778381,343.036652 554.546570,341.543182 556.333130,341.152710 
	C558.392944,340.702454 561.454468,340.675690 562.712708,341.886688 
	C563.971741,343.098480 563.809082,346.073090 563.744934,348.259583 
	C563.710144,349.444214 562.656555,350.645813 561.934448,351.756439 
	C549.501282,370.877808 537.082092,390.008514 524.572693,409.079987 
	C521.835693,413.252655 518.945435,417.354065 515.795227,421.218842 
	C511.861847,426.044464 506.353851,427.770477 501.580139,425.963196 
	C496.094299,423.886230 494.447968,419.249329 494.282379,413.971191 
	C494.097534,408.080048 494.239990,402.178650 494.239990,394.877533 
	C489.698090,400.818024 486.346771,405.712158 482.456696,410.132111 
	C479.177765,413.857758 475.578857,417.450836 471.586243,420.370483 
	C460.932251,428.161316 449.401428,422.812744 448.075195,409.733673 
	C447.948303,408.481903 447.804321,407.231842 447.521576,404.632263 
	C444.934021,407.583344 443.287720,409.787750 441.316956,411.648499 
	C434.921722,417.686523 428.705017,423.972260 421.841644,429.436676 
	C416.692902,433.535950 410.340820,435.233917 404.073425,431.586212 
	C397.652618,427.849304 396.311584,421.518250 396.862976,414.666779 
	C397.088501,411.865021 397.366028,408.939301 398.349762,406.346954 
	C406.491364,384.892578 419.758057,367.281158 438.797119,354.366089 
	C442.380829,351.935028 447.013947,350.918823 451.292267,349.706818 
	C453.087585,349.198181 455.530060,349.288239 457.139282,350.133026 
	C461.510498,352.427734 465.229187,355.797363 470.713898,355.964294 
	C471.880432,355.999786 473.987640,359.949768 473.809906,361.930115 
	C473.462524,365.800873 471.809021,369.554443 470.528992,373.709778 
M412.666504,409.436096 
	C412.342865,412.114319 412.019226,414.792572 411.695587,417.470825 
	C412.289978,417.755035 412.884369,418.039276 413.478760,418.323517 
	C431.465637,402.552612 447.685730,385.361450 457.661194,362.805908 
	C446.379852,358.130707 417.772644,391.128174 412.666504,409.436096 
z"/>
<path fill="#F8FBF8" opacity="1.000000" stroke="none" 
	d="
M931.858826,467.878479 
	C868.496338,464.091156 805.539551,463.366913 741.754028,464.140198 
	C742.898682,459.709045 743.512939,455.766205 745.048401,452.222504 
	C745.597107,450.956146 748.377869,450.000519 750.133911,450.009979 
	C791.126831,450.231171 832.130554,450.106445 873.108826,451.057556 
	C949.129822,452.822052 1024.890869,458.278229 1100.188965,469.263000 
	C1103.146362,469.694427 1106.153442,470.165466 1108.965332,471.123108 
	C1112.943237,472.477814 1114.598511,475.597168 1114.117065,479.769775 
	C1113.667114,483.669037 1110.832397,484.480347 1107.541260,485.412476 
	C1100.864868,487.303558 1095.229248,483.405884 1089.037842,482.740051 
	C1056.575806,479.249023 1024.152466,475.375610 991.661743,472.182312 
	C971.935608,470.243561 952.112061,469.295776 931.858826,467.878479 
z"/>
<path fill="#F8FBF8" opacity="1.000000" stroke="none" 
	d="
M657.360962,428.228577 
	C657.760620,429.229645 657.972900,429.865051 658.262817,430.462769 
	C659.398315,432.804443 661.762512,435.807465 658.604004,437.431824 
	C656.073853,438.733032 652.075439,438.964264 649.500610,437.863922 
	C647.177185,436.870972 645.341980,433.657013 644.262756,431.024384 
	C640.294922,421.346161 640.775879,411.139679 641.482544,400.966278 
	C641.768066,396.855927 642.115112,392.749847 641.539795,388.237915 
	C639.175781,391.319550 637.020813,394.592865 634.406372,397.444946 
	C628.011719,404.420929 621.497253,411.294403 614.822449,418.001587 
	C612.990417,419.842499 610.552979,421.228302 608.170471,422.348969 
	C596.486450,427.844940 583.942871,419.873657 585.665100,407.125519 
	C588.895569,383.213654 600.676758,364.217773 622.231628,352.448456 
	C632.153748,347.030823 639.061279,348.038239 648.238220,354.381531 
	C649.552368,350.485107 650.860535,346.755585 652.070374,342.994476 
	C659.410339,320.176270 666.624146,297.307678 677.651917,275.901337 
	C679.554138,272.208893 681.727539,268.649963 683.893799,265.101440 
	C686.035767,261.592499 689.304749,260.825562 693.020020,261.991180 
	C696.773499,263.168732 698.371460,266.214264 697.814697,269.783905 
	C697.075745,274.521454 696.103455,279.341736 694.354309,283.780853 
	C688.440674,298.788879 683.065247,314.117523 675.744934,328.434387 
	C667.215271,345.116425 660.910278,362.252838 658.834351,380.805817 
	C657.396179,393.659760 656.614319,406.593231 655.822266,419.508514 
	C655.654175,422.248840 656.714844,425.064575 657.360962,428.228577 
M607.886841,405.487701 
	C621.788330,393.137268 631.927734,377.863647 642.474060,362.427063 
	C625.649353,357.968506 596.355957,391.423645 600.873779,409.639740 
	C603.143188,408.334778 605.226135,407.137054 607.886841,405.487701 
z"/>
<path fill="#F7FAF7" opacity="1.000000" stroke="none" 
	d="
M644.965515,466.708832 
	C582.040100,471.537048 519.535400,475.674347 457.176056,481.395660 
	C423.045685,484.527008 389.158875,490.320557 355.170197,494.971588 
	C353.057922,495.260651 350.926666,495.844604 348.959778,496.664520 
	C345.663635,498.038452 342.833221,496.947693 342.066101,494.022034 
	C341.555115,492.073303 342.887238,489.026001 344.383575,487.357422 
	C345.621124,485.977509 348.262848,485.607788 350.358643,485.283691 
	C387.374176,479.559937 424.305176,473.159882 461.446472,468.406219 
	C535.688232,458.904053 610.345093,454.271759 685.114319,451.402954 
	C687.704834,451.303528 690.302490,451.390320 693.451477,451.390320 
	C692.391357,455.530792 691.824951,459.179871 690.427246,462.476532 
	C689.888062,463.748383 687.495728,464.868103 685.888672,464.954010 
	C672.415833,465.674164 658.929260,466.137726 644.965515,466.708832 
z"/>
<path fill="#F7FAF8" opacity="1.000000" stroke="none" 
	d="
M262.724060,412.524200 
	C275.364166,378.790039 287.832306,345.415802 300.435394,312.092651 
	C303.378937,304.309692 306.744568,296.684723 309.995209,289.020691 
	C310.835114,287.040436 311.517761,284.523315 313.090363,283.440399 
	C315.156158,282.017914 318.500702,280.591949 320.423737,281.357361 
	C322.265808,282.090454 323.247437,285.536102 324.089844,287.968750 
	C324.444183,288.991882 323.550629,290.505981 323.086273,291.745117 
	C311.166321,323.554810 298.987427,355.270264 287.399719,387.200348 
	C282.010223,402.051178 277.786377,417.323975 272.972168,432.385742 
	C272.216461,434.750122 271.646454,437.493866 270.057220,439.185181 
	C268.339478,441.013184 265.273743,443.092377 263.264191,442.694946 
	C261.314423,442.309235 258.603699,438.921173 258.601471,436.849091 
	C258.595306,431.098450 259.718536,425.329803 260.618866,419.603363 
	C260.977509,417.322327 261.923004,415.133545 262.724060,412.524200 
z"/>
<path fill="#F8FBF8" opacity="1.000000" stroke="none" 
	d="
M814.503418,354.843445 
	C814.803467,356.813110 814.959045,358.411926 815.197571,360.863129 
	C817.324463,359.104553 818.932983,357.778900 820.536865,356.447662 
	C827.699036,350.502899 835.612305,345.597961 844.928772,344.730499 
	C850.116943,344.247437 855.631714,345.823425 860.777039,347.264923 
	C862.209900,347.666351 863.922729,351.146820 863.547546,352.758636 
	C863.183533,354.322266 860.225342,356.465302 858.537354,356.354706 
	C841.168091,355.216614 830.336670,365.747589 820.564026,377.639404 
	C810.766907,389.560913 804.238525,403.467712 798.501648,417.712097 
	C796.106140,423.659943 793.188354,425.769836 788.736633,424.423706 
	C784.283020,423.076996 781.995544,418.621765 783.752014,412.977448 
	C788.396362,398.053284 793.386169,383.236511 798.261230,368.384460 
	C799.661682,364.118073 800.823059,359.729584 802.709717,355.684143 
	C803.712830,353.533020 805.974854,350.616272 807.774597,350.539856 
	C809.909851,350.449219 812.159119,353.042511 814.503418,354.843445 
z"/>
<path fill="#F7FAF7" opacity="1.000000" stroke="none" 
	d="
M558.843384,387.710022 
	C562.891052,377.438599 566.757690,367.519531 570.779968,357.664001 
	C572.139038,354.333893 573.922485,351.098541 578.492920,352.446075 
	C582.292175,353.566193 584.422424,357.557495 583.309326,362.156708 
	C582.296753,366.340210 580.711792,370.386505 579.353271,374.484680 
	C575.951721,384.745483 572.345398,394.944397 569.237549,405.293152 
	C568.269226,408.517242 568.879517,412.183563 568.300354,415.567566 
	C567.917175,417.806244 567.280640,420.799835 565.701843,421.817291 
	C564.029663,422.894958 560.780334,422.762695 558.796509,421.873047 
	C554.001343,419.722626 552.919922,414.988251 553.689270,410.416199 
	C554.953430,402.903595 557.004028,395.523285 558.843384,387.710022 
z"/>
<path fill="#9BD6A6" opacity="1.000000" stroke="none" 
	d="
M1308.362793,710.674683 
	C1310.009155,711.375854 1311.317627,711.942139 1314.101685,713.147034 
	C1301.182617,717.262817 1293.200439,724.858948 1289.058716,737.006287 
	C1284.747314,725.313354 1277.307495,717.179138 1264.964966,713.083740 
	C1276.826416,708.838196 1284.810059,701.102600 1288.954224,689.050720 
	C1292.726562,698.847290 1298.435303,706.464050 1308.362793,710.674683 
z"/>
<path fill="#F4F8F4" opacity="1.000000" stroke="none" 
	d="
M581.170349,325.846130 
	C580.137817,321.123505 581.251160,317.030334 585.312378,315.351532 
	C587.969788,314.253052 591.926086,314.377869 594.562012,315.577545 
	C598.966553,317.582092 599.829712,322.853424 597.307617,326.641632 
	C594.295654,331.165619 588.369080,332.532654 584.228699,329.505585 
	C583.062866,328.653198 582.259583,327.304810 581.170349,325.846130 
z"/>
<path fill="#54B768" opacity="1.000000" stroke="none" 
	d="
M969.795776,355.870300 
	C966.154785,361.022491 962.227722,365.995667 958.300720,370.968811 
	C957.868164,370.741608 957.435669,370.514404 957.003174,370.287231 
	C959.141907,364.370789 961.280701,358.454376 963.620605,352.247070 
	C965.717712,353.201233 967.613647,354.446259 969.795776,355.870300 
z"/>
<path fill="#44B456" opacity="1.000000" stroke="none" 
	d="
M869.094849,396.103363 
	C864.816711,399.356903 860.803345,402.374420 856.247131,405.800079 
	C854.783264,389.389984 882.213135,360.506287 897.256958,362.237885 
	C889.859436,375.398865 879.391602,385.459076 869.094849,396.103363 
z"/>
<path fill="#42B358" opacity="1.000000" stroke="none" 
	d="
M1089.163818,351.063751 
	C1090.826294,350.680420 1092.151245,350.438690 1094.878418,349.941132 
	C1088.071167,364.851593 1076.833496,373.310455 1063.691772,381.831085 
	C1068.971436,367.968353 1077.627075,358.559143 1089.163818,351.063751 
z"/>
<path fill="#3CB051" opacity="1.000000" stroke="none" 
	d="
M993.354797,374.285583 
	C993.599915,374.297272 993.652161,374.489502 993.704468,374.681732 
	C993.523560,374.609863 993.342773,374.537994 993.354797,374.285583 
z"/>
<path fill="#3CB051" opacity="1.000000" stroke="none" 
	d="
M780.855774,271.825226 
	C781.017212,271.750702 781.436340,271.915710 781.751099,272.302124 
	C781.468933,272.370636 781.291199,272.217682 780.855774,271.825226 
z"/>
<path fill="#41B155" opacity="1.000000" stroke="none" 
	d="
M412.770996,409.042175 
	C417.772644,391.128174 446.379852,358.130707 457.661194,362.805908 
	C447.685730,385.361450 431.465637,402.552612 413.478760,418.323517 
	C412.884369,418.039276 412.289978,417.755035 411.695587,417.470825 
	C412.019226,414.792572 412.342865,412.114319 412.770996,409.042175 
z"/>
<path fill="#41B254" opacity="1.000000" stroke="none" 
	d="
M607.598022,405.713501 
	C605.226135,407.137054 603.143188,408.334778 600.873779,409.639740 
	C596.355957,391.423645 625.649353,357.968506 642.474060,362.427063 
	C631.927734,377.863647 621.788330,393.137268 607.598022,405.713501 
z"/>
</svg>