<svg version="1.1" id="Layer_1" xmlns="http://www.w3.org/2000/svg" xmlns:xlink="http://www.w3.org/1999/xlink" x="0px" y="0px"
	 width="100%" viewBox="0 0 1024 560" enable-background="new 0 0 1024 560" xml:space="preserve">
<path fill="#000000" opacity="1.000000" stroke="none" 
	d="
M646.184937,280.235168 
	C651.527161,272.778015 657.986633,267.053345 665.681885,262.835358 
	C671.223938,259.797577 676.992126,257.397919 682.696960,262.726593 
	C683.344055,263.331024 684.138916,263.291077 685.006775,263.307556 
	C692.026550,263.440948 694.529846,267.257904 691.563477,273.646912 
	C689.037109,279.088196 686.429138,284.465454 684.947021,290.319214 
	C684.374695,292.579742 683.849182,294.766754 684.881042,297.114929 
	C687.992981,296.769135 689.716553,294.634949 691.624634,292.882538 
	C702.164001,283.203186 709.779236,271.226013 717.691650,259.491913 
	C719.137024,257.348511 720.627930,255.318771 723.426147,255.180542 
	C727.156738,254.996262 730.254395,258.945038 729.218933,262.681793 
	C728.209045,266.326294 726.875671,269.881104 725.963806,273.655640 
	C730.014282,269.296387 733.631897,264.607880 738.312134,260.952667 
	C741.464111,258.491028 744.718384,256.489075 748.775940,258.858643 
	C752.876160,261.253143 753.235840,265.162720 752.731140,269.329773 
	C752.399231,272.070831 751.986084,274.802063 751.502075,278.316437 
	C754.608032,274.989777 757.129089,272.182007 759.771545,269.493591 
	C761.871033,267.357544 763.987244,265.200043 766.332764,263.352753 
	C769.670288,260.724121 773.366821,258.218323 777.660339,261.147247 
	C781.867004,264.016937 781.997314,268.155945 780.588623,272.742737 
	C778.734863,278.778656 777.018250,284.872986 775.622559,291.028381 
	C774.406433,296.392029 776.138733,297.690643 781.537415,296.114868 
	C786.995544,294.521790 790.219360,291.699127 791.761536,285.510864 
	C795.597168,270.120483 804.611877,258.230377 819.244385,251.242981 
	C824.883606,248.550110 829.693481,249.378830 833.531006,253.214691 
	C836.827454,256.509705 837.528320,261.932159 834.934753,267.180023 
	C828.960510,279.268005 818.807556,287.296387 807.961731,294.663239 
	C805.951782,296.028473 802.156189,296.385406 802.908142,299.915375 
	C803.649536,303.395752 807.166199,303.924530 810.085022,304.391479 
	C816.726379,305.453949 823.014954,303.474274 829.089783,301.216400 
	C842.878052,296.091492 855.956787,289.540436 868.003052,280.995544 
	C870.129272,279.487305 872.718933,276.252228 875.324890,278.923676 
	C877.799316,281.460205 874.621521,284.052979 873.329041,286.401489 
	C871.601929,289.540070 868.791687,291.693481 865.985901,293.790131 
	C852.379639,303.957672 837.759583,312.193451 820.956543,315.610931 
	C810.081604,317.822754 799.911865,316.575043 793.038208,306.273590 
	C791.847412,304.488983 790.563965,304.519623 788.782104,305.254211 
	C786.329895,306.265198 783.823669,307.248627 781.247681,307.837097 
	C771.932312,309.965088 764.139832,303.914520 763.672241,294.429626 
	C763.440918,289.738007 764.286499,285.204132 764.799011,280.250519 
	C761.319336,284.749603 757.830444,289.241547 754.363586,293.750519 
	C752.333557,296.390625 750.395264,299.103149 748.312683,301.700500 
	C746.086731,304.476746 743.309937,306.463013 739.658203,304.795380 
	C735.822815,303.043854 734.592285,299.641571 735.366272,295.620300 
	C736.587463,289.275482 737.958740,282.959564 739.420654,275.885803 
	C731.382141,284.093628 726.070984,293.430420 720.179565,302.337738 
	C718.709900,304.559723 717.341003,306.857178 715.746033,308.985260 
	C713.813171,311.564362 711.297241,313.258759 707.985229,311.758362 
	C704.743713,310.289886 703.266785,307.449707 703.828735,303.982391 
	C704.350891,300.759979 705.401184,297.623169 706.493774,293.381897 
	C702.442566,298.090271 698.925659,301.802063 694.883362,304.998047 
	C685.011292,312.803162 674.590149,309.972290 672.951538,298.480499 
	C672.892334,298.065460 672.492065,297.699066 672.050415,296.986969 
	C669.496460,299.356659 667.177429,301.705536 664.647888,303.800201 
	C662.089417,305.918793 659.414917,307.928650 656.626038,309.730469 
	C652.033203,312.697784 647.100037,314.280426 642.245850,310.513794 
	C637.255798,306.641693 636.857788,301.198090 638.260071,295.534119 
	C639.642151,289.951782 642.507019,285.067596 646.184937,280.235168 
M678.314941,270.769928 
	C675.842041,268.577576 673.668518,270.438385 671.753906,271.568817 
	C662.831299,276.836914 655.970154,284.154266 651.183228,293.346222 
	C650.161072,295.308868 649.009888,297.390015 649.886414,300.623291 
	C661.990784,292.938385 670.765198,282.817078 678.314941,270.769928 
M806.544556,281.903320 
	C814.617371,277.016022 820.943176,270.526855 825.971191,261.418335 
	C821.966064,261.495667 820.012207,263.398224 818.150940,265.107239 
	C812.982056,269.853333 807.163635,274.189056 806.544556,281.903320 
z"/>
<path fill="#000000" opacity="1.000000" stroke="none" 
	d="
M268.298645,320.344788 
	C244.593597,338.756134 219.549118,354.118286 191.429840,364.010345 
	C182.772003,367.056061 173.889374,369.231140 164.609772,369.322601 
	C161.171585,369.356476 157.973495,368.526978 155.074463,366.790527 
	C151.734924,364.790192 149.444107,361.853455 149.822372,357.802979 
	C150.197586,353.784973 152.398697,350.792358 156.302338,348.926819 
	C156.900101,349.690399 157.491119,350.129974 157.645081,350.689728 
	C159.701294,358.164917 159.790344,358.474426 167.711029,357.652405 
	C179.423035,356.436859 190.466415,352.601044 201.053055,347.647949 
	C240.176895,329.343536 275.060120,305.405945 301.737701,270.785583 
	C307.971558,262.695709 312.901489,253.871231 316.392181,244.209641 
	C325.205658,219.815582 313.685486,199.556015 288.122589,195.387604 
	C265.464172,191.692795 243.699860,195.978745 222.579437,204.088760 
	C209.456589,209.127762 197.072693,215.618271 186.371918,224.923080 
	C184.499344,226.551392 182.798126,228.407150 181.200104,230.310928 
	C179.987564,231.755432 179.495773,233.247070 180.714615,235.280243 
	C182.660629,238.526413 181.160873,240.887924 177.390518,241.136383 
	C172.176117,241.479996 168.157028,236.411423 169.548660,230.969269 
	C170.879929,225.763062 174.419327,221.954758 178.247437,218.433472 
	C197.177780,201.020416 219.853409,191.114349 244.680359,185.776276 
	C259.366180,182.618652 274.197479,180.581680 289.214752,183.697418 
	C308.796387,187.760147 324.292450,196.998703 329.286774,217.814377 
	C332.768921,232.327744 329.690002,246.310074 322.660614,259.307495 
	C310.082397,282.564514 291.896790,300.992065 271.709656,317.637939 
	C270.681335,318.485840 269.621277,319.295227 268.298645,320.344788 
z"/>
<path fill="#000000" opacity="1.000000" stroke="none" 
	d="
M567.310730,250.245987 
	C572.912964,248.752762 575.875183,245.437775 577.868896,240.301636 
	C582.680054,227.907425 588.092957,215.746780 593.781555,202.263428 
	C582.945679,206.329620 573.009521,209.297821 563.962952,214.486496 
	C561.679077,215.796402 559.396790,217.118484 556.985962,215.771866 
	C553.913696,214.055756 553.105835,211.353043 555.206238,208.186569 
	C556.650269,206.009689 558.821472,204.809814 561.082153,203.691528 
	C571.698486,198.440094 582.653198,193.988037 593.822388,190.087570 
	C597.452087,188.820023 600.146179,186.982513 602.171326,183.553116 
	C606.152649,176.811554 608.910339,176.837814 613.557251,183.390411 
	C627.692810,178.815613 642.014526,174.468018 656.600891,171.085144 
	C667.623108,168.528885 678.652466,165.955521 689.973206,165.089310 
	C691.927368,164.939804 693.936218,165.331909 695.905273,165.586639 
	C700.009705,166.117630 703.412292,167.789993 704.136108,172.274506 
	C704.846558,176.676376 701.631348,178.916611 698.438721,180.816208 
	C694.113953,183.389435 692.523926,182.577820 691.521118,177.283279 
	C681.872437,177.288300 672.516541,179.587219 663.144592,181.657089 
	C646.063843,185.429474 629.376526,190.634506 612.631470,195.636185 
	C608.916077,196.745956 607.054382,198.835983 605.667725,202.508255 
	C601.258911,214.184036 596.300049,225.651749 591.594604,237.216476 
	C591.121826,238.378357 590.045532,239.480179 591.006714,241.261063 
	C594.211548,241.152130 597.240662,239.786285 600.342712,238.844193 
	C608.153503,236.472092 615.992310,234.232773 624.099365,233.108627 
	C625.408508,232.927094 626.781067,232.753708 628.067139,232.950623 
	C630.635254,233.343765 633.181274,234.349121 633.667725,237.169464 
	C634.214661,240.340439 631.535339,241.498734 629.147705,242.223648 
	C618.956421,245.317825 608.690918,248.168228 598.501770,251.269257 
	C583.530945,255.825577 583.571411,255.893219 577.790771,270.696014 
	C567.560120,296.893829 556.882263,322.929993 549.094238,350.009369 
	C548.130066,353.361847 547.351807,356.773590 546.626953,360.187469 
	C545.904724,363.588684 544.136780,365.832153 540.463379,365.201477 
	C536.553040,364.530060 535.521851,361.433868 535.980957,358.008362 
	C537.200378,348.909576 539.544495,340.065674 542.517700,331.382416 
	C550.017029,309.479858 558.381958,287.904633 566.998047,266.423096 
	C567.535095,265.084045 567.860229,263.659973 568.340393,262.091156 
	C565.864258,262.023407 564.424194,263.600403 562.676636,264.382080 
	C559.951965,265.600830 557.441162,265.859528 555.645203,263.047913 
	C553.934814,260.370300 554.807007,257.886261 556.915527,255.846527 
	C559.742310,253.112045 563.485657,251.982040 567.310730,250.245987 
z"/>
<path fill="#000000" opacity="1.000000" stroke="none" 
	d="
M339.141388,262.949310 
	C345.197540,259.660370 350.909485,257.858246 356.514557,263.029022 
	C356.634064,263.139252 356.791718,263.214813 356.941895,263.284149 
	C366.781494,267.828644 366.648132,267.776367 362.611877,278.117828 
	C359.545898,285.973236 356.827637,293.971588 356.320282,302.602478 
	C359.153137,302.929138 360.291077,301.044098 361.587128,299.668488 
	C370.590271,290.112762 377.681580,279.342194 382.158508,266.927643 
	C383.104004,264.305725 384.567963,261.827728 387.760864,262.131958 
	C391.080109,262.448242 392.753113,265.007324 392.708282,268.086334 
	C392.613983,274.562073 392.142120,281.033569 391.769897,287.503632 
	C391.534668,291.592529 391.199432,295.675720 391.851807,300.100616 
	C394.300018,296.226349 396.830109,292.401001 399.180145,288.468079 
	C404.909485,278.879791 410.916321,269.485504 417.958160,260.791473 
	C419.749298,258.580078 421.747406,256.577118 424.152893,255.023499 
	C426.327667,253.618927 428.722595,252.293381 430.976990,254.439255 
	C433.214874,256.569489 432.205383,259.054871 430.734894,261.248749 
	C426.470795,267.610657 422.056885,273.874451 417.892914,280.300629 
	C411.915741,289.524994 406.117279,298.865082 400.221283,308.142212 
	C398.521118,310.817352 396.742828,313.456085 394.229187,315.455353 
	C388.202942,320.248444 380.576172,317.325348 379.761078,309.684082 
	C379.291992,305.286804 379.676025,300.798553 379.676025,295.016876 
	C375.380615,300.085541 372.712189,304.720337 368.748108,308.222717 
	C366.879700,309.873505 365.137482,311.728210 363.070953,313.083008 
	C354.868866,318.459991 347.873901,315.730103 345.164886,306.235321 
	C344.898407,305.301300 344.670441,304.356323 344.210815,302.599060 
	C341.759735,305.334625 339.733551,307.661621 337.636139,309.922546 
	C333.766388,314.093994 329.523560,317.830872 324.610840,320.749451 
	C320.464325,323.212921 316.265961,324.097687 311.992432,321.024963 
	C307.734619,317.963623 306.449646,313.592163 307.050049,308.694611 
	C308.397247,297.705780 314.143066,288.651611 320.690094,280.198669 
	C325.786774,273.618317 331.733704,267.716125 339.141388,262.949310 
M325.915771,305.417633 
	C336.113220,295.231903 346.013855,284.829865 351.711243,271.006500 
	C341.009460,269.210419 318.262970,296.795380 318.947113,310.177399 
	C321.838043,309.773956 323.479248,307.603210 325.915771,305.417633 
z"/>
<path fill="#000000" opacity="1.000000" stroke="none" 
	d="
M743.991699,351.241516 
	C687.882629,346.709106 632.136963,345.294495 576.335876,345.379028 
	C572.431091,345.384949 568.394165,346.611877 564.605469,344.768921 
	C564.375916,336.467163 565.664978,334.893127 573.367676,334.586975 
	C606.849426,333.256073 640.303223,334.577911 673.770813,335.462616 
	C689.924805,335.889679 706.026062,336.998230 722.152588,337.764038 
	C743.432983,338.774597 764.592957,341.158264 785.784119,343.243439 
	C800.691528,344.710236 815.501404,346.840668 830.344971,348.752960 
	C832.975952,349.091888 835.643616,349.468140 838.000916,350.856232 
	C840.360352,352.245544 841.698792,354.232910 841.234314,357.059265 
	C840.793518,359.741516 838.885071,360.718140 836.417603,361.404388 
	C832.804199,362.409302 829.651184,361.085938 826.232178,360.424194 
	C818.079102,358.846100 809.822449,357.685333 801.559265,356.816772 
	C782.542175,354.817871 763.496155,353.093323 743.991699,351.241516 
z"/>
<path fill="#000000" opacity="1.000000" stroke="none" 
	d="
M451.682129,287.860291 
	C456.315521,278.674164 461.508911,270.422455 470.028290,264.787109 
	C477.560791,259.804626 485.305756,257.446503 493.662628,262.318054 
	C495.341125,261.651550 495.412231,260.257751 495.820038,259.002472 
	C502.145782,239.530930 508.049042,219.894318 517.897949,201.782166 
	C518.454895,200.757812 519.072388,199.765686 519.611328,198.732300 
	C521.393127,195.315781 524.119690,193.694077 527.838928,195.116241 
	C531.525635,196.525955 531.873291,199.858597 531.108398,203.100998 
	C530.003052,207.786682 528.737305,212.470154 527.069153,216.980423 
	C522.850891,228.385742 518.260620,239.685364 512.393433,250.328278 
	C506.625366,260.791443 504.444885,272.187897 502.485687,283.642395 
	C501.117065,291.644073 499.689362,299.692474 500.161438,307.945465 
	C500.401184,312.136871 500.611359,316.253448 502.126099,320.189667 
	C503.079407,322.666931 503.865356,325.151855 500.803192,326.619843 
	C497.803101,328.058014 495.136597,326.936035 493.291595,324.470154 
	C489.862915,319.887695 488.979492,314.429382 488.785126,308.887726 
	C488.570953,302.781464 488.637115,296.667358 489.770264,289.389038 
	C483.520081,296.744476 478.781982,303.817078 472.181915,309.167358 
	C469.988495,310.945465 467.813812,312.838287 465.360413,314.187378 
	C456.867981,318.857178 448.087280,313.739471 447.612701,304.049377 
	C447.333862,298.355316 449.341553,293.271484 451.682129,287.860291 
M481.885559,281.409607 
	C484.438873,277.851135 487.495209,274.588745 488.887512,270.200134 
	C482.924194,269.094788 475.777283,272.356628 470.720764,278.832581 
	C465.124207,286.000183 459.613617,293.326324 460.061798,303.247925 
	C469.673462,298.428650 475.049469,289.688751 481.885559,281.409607 
z"/>
<path fill="#000000" opacity="1.000000" stroke="none" 
	d="
M526.080139,344.177277 
	C525.025024,346.447632 523.266479,346.262543 521.614136,346.339081 
	C499.992920,347.340332 478.344910,347.954285 456.757690,349.447144 
	C433.028320,351.088135 409.297577,352.761963 385.604156,355.003601 
	C362.413635,357.197723 339.281403,359.882751 316.147827,362.524384 
	C301.459137,364.201660 286.886536,366.959930 272.312347,369.520721 
	C269.429596,370.027222 267.118286,370.094116 266.208374,367.174286 
	C265.147156,363.768860 267.714752,362.393860 270.454102,361.645874 
	C279.939453,359.055756 289.622986,357.392334 299.305878,355.778412 
	C335.107544,349.811188 371.157135,345.864990 407.292145,342.604218 
	C436.469818,339.971222 465.670685,337.800568 494.948517,336.541077 
	C504.102661,336.147308 513.251404,335.846375 522.407959,335.681213 
	C524.180359,335.649200 526.092590,335.170746 527.693787,336.614960 
	C528.460205,339.248962 526.679871,341.385223 526.080139,344.177277 
z"/>
<path fill="#000000" opacity="1.000000" stroke="none" 
	d="
M207.796677,304.996338 
	C218.170227,275.050201 229.791870,246.011871 241.645508,217.063293 
	C242.275497,215.524704 242.970901,214.007538 243.727707,212.527390 
	C245.157257,209.731552 247.240936,207.819733 250.525970,209.275558 
	C253.651825,210.660889 254.017868,213.183075 252.986267,216.381226 
	C249.001877,228.733551 244.502304,240.893707 239.676895,252.934402 
	C230.828232,275.014191 222.433731,297.249176 215.946869,320.164276 
	C215.273361,322.543457 214.192841,324.839172 213.051575,327.044403 
	C212.086075,328.910034 210.414474,330.150452 208.184769,329.890900 
	C205.867966,329.621155 204.947830,327.774292 204.305634,325.802246 
	C203.562485,323.520233 203.601578,321.203735 204.187653,318.902954 
	C205.336777,314.391785 206.527100,309.891052 207.796677,304.996338 
z"/>
<path fill="#000000" opacity="1.000000" stroke="none" 
	d="
M626.838257,261.727844 
	C634.129211,257.330048 641.279297,253.784195 649.726990,256.933838 
	C652.352722,257.912811 655.583618,258.949402 654.949158,262.580109 
	C654.316406,266.200470 651.119751,266.196075 648.175964,266.029449 
	C640.777588,265.610718 635.042419,269.230621 629.835388,273.835693 
	C618.650879,283.727234 612.685120,297.006927 606.719727,310.226624 
	C605.098572,313.819214 603.556519,317.140167 598.815308,315.803711 
	C595.223328,314.791229 593.802673,311.051086 595.335083,306.170288 
	C599.370728,293.316956 603.568054,280.513672 607.799805,267.723145 
	C608.824585,264.625702 609.522095,260.684326 613.580933,260.396851 
	C617.497009,260.119476 618.364502,263.844238 619.431885,267.226624 
	C622.060913,265.264557 624.298096,263.594940 626.838257,261.727844 
z"/>
<path fill="#000000" opacity="1.000000" stroke="none" 
	d="
M427.935669,287.144714 
	C430.727905,280.146851 433.327698,273.493195 436.099579,266.911957 
	C437.194885,264.311554 438.542938,261.236755 442.088562,262.095703 
	C445.749054,262.982483 446.617340,266.091492 446.280792,269.581512 
	C445.776031,274.815643 443.106842,279.337799 441.507996,284.211548 
	C438.727020,292.688751 434.790100,300.870850 435.225861,310.149353 
	C435.337677,312.530731 434.051270,314.324585 431.672180,314.972900 
	C429.304779,315.618103 427.419189,314.507050 425.950012,312.780396 
	C422.654938,308.907684 423.288208,304.321106 424.191956,299.940155 
	C425.060608,295.729645 426.579163,291.653259 427.935669,287.144714 
z"/>
<path fill="#000000" opacity="1.000000" stroke="none" 
	d="
M450.908142,246.504593 
	C446.546143,246.133972 443.678253,244.114639 444.005432,239.968735 
	C444.287170,236.398590 446.816010,233.968643 450.647766,233.746033 
	C454.335266,233.531799 457.008820,235.789581 457.541321,239.005600 
	C458.246643,243.265305 455.154297,245.476242 450.908142,246.504593 
z"/>
</svg>